<?xml version="1.0" encoding="utf-8"?>
<!-- Generator: Adobe Illustrator 25.2.0, SVG Export Plug-In . SVG Version: 6.00 Build 0)  -->
<!DOCTYPE svg PUBLIC "-//W3C//DTD SVG 1.1//EN" "http://www.w3.org/Graphics/SVG/1.1/DTD/svg11.dtd" [
	<!ENTITY ns_extend "http://ns.adobe.com/Extensibility/1.0/">
	<!ENTITY ns_ai "http://ns.adobe.com/AdobeIllustrator/10.0/">
	<!ENTITY ns_graphs "http://ns.adobe.com/Graphs/1.0/">
	<!ENTITY ns_vars "http://ns.adobe.com/Variables/1.0/">
	<!ENTITY ns_imrep "http://ns.adobe.com/ImageReplacement/1.0/">
	<!ENTITY ns_sfw "http://ns.adobe.com/SaveForWeb/1.0/">
	<!ENTITY ns_custom "http://ns.adobe.com/GenericCustomNamespace/1.0/">
	<!ENTITY ns_adobe_xpath "http://ns.adobe.com/XPath/1.0/">
]>
<svg version="1.1"
	 id="BARTHAUER_x5F_software_x5F_tunisia_x5F_RGB" xmlns:x="&ns_extend;" xmlns:i="&ns_ai;" xmlns:graph="&ns_graphs;"
	 xmlns="http://www.w3.org/2000/svg" xmlns:xlink="http://www.w3.org/1999/xlink" x="0px" y="0px" viewBox="0 0 340.2 127.1"
	 style="enable-background:new 0 0 340.2 127.1;" xml:space="preserve">
<style type="text/css">
	.st0{fill:none;}
	.st1{fill:#193755;}
	.st2{fill:#06D8F3;}
</style>
<metadata>
	<sfw  xmlns="&ns_sfw;">
		<slices></slices>
		<sliceSourceBounds  bottomLeftOrigin="true" height="127.1" width="340.2" x="84.3" y="249.1"></sliceSourceBounds>
		<optimizationSettings>
			<targetSettings  fileFormat="JPEGFormat" targetSettingsID="0">
				
					<JPEGFormat  blurAmount="0" embedICCProfile="false" matteColor="#FFFFFF" noMatteColor="false" optimized="true" progressive="true" quality="80">
					</JPEGFormat>
			</targetSettings>
		</optimizationSettings>
	</sfw>
</metadata>
<g id="schutzzone_3_">
	<rect y="0" class="st0" width="340.2" height="127.1"/>
</g>
<g id="LOGO_3_">
	<path class="st1" d="M28.2,28.2h16c5.6,0,8.2,3.6,8.2,7.2c0,3.5-2.2,5.9-4.8,6.5c3,0.5,5.4,3.3,5.4,6.9c0,4.1-2.7,7.7-8.3,7.7H28.2
		V28.2z M42.6,39.1c1.5,0,2.5-1.1,2.5-2.5c0-1.4-1-2.4-2.5-2.4h-7.1v4.9H42.6z M42.8,50.4c1.7,0,2.8-1.1,2.8-2.6
		c0-1.4-1-2.7-2.8-2.7h-7.3v5.2H42.8z"/>
	<path class="st1" d="M79.2,52.2H67.5l-1.4,4.3h-7.9l10.6-28.2h9.1l10.7,28.2h-7.9L79.2,52.2z M69.4,46h7.9l-4-11.5L69.4,46z"/>
	<path class="st1" d="M105.9,46.9h-3.7v9.6h-7.3V28.2H109c6.3,0,9.8,4.1,9.8,9.4c0,4.9-3,7.5-5.6,8.5l5.7,10.4h-8.3L105.9,46.9z
		 M107.9,34.4h-5.7v6.3h5.7c1.9,0,3.5-1.2,3.5-3.2C111.4,35.6,109.8,34.4,107.9,34.4z"/>
	<path class="st1" d="M132.9,34.6H125v-6.3h23v6.3h-7.9v21.9h-7.3V34.6z"/>
	<path class="st1" d="M174.7,45.1H163v11.3h-7.3V28.2h7.3v10.5h11.7V28.2h7.3v28.2h-7.3V45.1z"/>
	<path class="st1" d="M209.3,52.2h-11.7l-1.4,4.3h-7.9l10.6-28.2h9.1l10.7,28.2h-7.9L209.3,52.2z M199.5,46h7.9l-4-11.5L199.5,46z"
		/>
	<path class="st1" d="M223.4,28.2h7.4v16.5c0,3.3,1.8,5.7,5.7,5.7c3.9,0,5.7-2.4,5.7-5.7V28.2h7.4V45c0,7-4,12-13.1,12
		c-9,0-13.1-5-13.1-11.9V28.2z"/>
	<path class="st1" d="M258.8,28.2h20.7v6.1h-13.4v4.7h13.1v6.2h-13.1v5.1h13.4v6.1h-20.7V28.2z"/>
	<path class="st1" d="M299,46.9h-3.7v9.6H288V28.2h14.1c6.3,0,9.8,4.1,9.8,9.4c0,4.9-3,7.5-5.6,8.5l5.7,10.4h-8.3L299,46.9z
		 M301,34.4h-5.7v6.3h5.7c1.9,0,3.5-1.2,3.5-3.2C304.5,35.6,302.9,34.4,301,34.4z"/>
	<path class="st1" d="M29.1,95.8c0.9,1.1,2.4,2,4.4,2c2.9,0,3.7-1.6,3.7-2.8c0-2-1.9-2.5-3.9-3.1c-2.2-0.6-4.6-1.2-4.6-3.8
		c0-2.3,2.1-3.8,4.6-3.8c2.1,0,3.7,0.7,4.8,2l-0.8,0.9c-1-1.2-2.5-1.8-4-1.8c-1.9,0-3.3,1.1-3.3,2.6c0,1.7,1.8,2.2,3.7,2.7
		c2.3,0.6,4.8,1.4,4.8,4.2c0,1.8-1.2,4-5,4c-2.3,0-4.1-0.9-5.2-2.2L29.1,95.8z"/>
	<path class="st1" d="M54,84.4c4.1,0,6.8,3.2,6.8,7.3c0,4.1-2.7,7.3-6.8,7.3c-4.1,0-6.8-3.2-6.8-7.3C47.2,87.5,49.9,84.4,54,84.4z
		 M54,85.5c-3.4,0-5.6,2.6-5.6,6.2c0,3.5,2.2,6.2,5.6,6.2c3.4,0,5.6-2.6,5.6-6.2C59.6,88.1,57.4,85.5,54,85.5z"/>
	<path class="st1" d="M70.2,84.6h8.9v1.1h-7.7v5.2H79V92h-7.6v6.7h-1.2V84.6z"/>
	<path class="st1" d="M91.6,85.7H87v-1.1h10.4v1.1h-4.6v13h-1.2V85.7z"/>
	<path class="st1" d="M113.7,86.6l-3.4,12.1h-1.4l-4-14.1h1.4l3.4,12.4l3.5-12.4h1.1l3.5,12.4l3.4-12.4h1.4l-4,14.1h-1.4L113.7,86.6
		z"/>
	<path class="st1" d="M138.7,95.2h-7.5l-1.4,3.5h-1.4l5.8-14.1h1.5l5.8,14.1h-1.4L138.7,95.2z M131.6,94.1h6.7l-3.4-8.3L131.6,94.1z
		"/>
	<path class="st1" d="M154.2,92.9h-3.1v5.8h-1.2V84.6h5.3c2.4,0,4.3,1.5,4.3,4.1c0,2.6-1.8,4-3.9,4.1l4.1,5.9h-1.5L154.2,92.9z
		 M155.1,85.7h-3.9v6.1h3.9c1.9,0,3.1-1.3,3.1-3S156.9,85.7,155.1,85.7z"/>
	<path class="st1" d="M168.8,84.6h8.9v1.1H170v5.2h7.6V92H170v5.6h7.7v1.1h-8.9V84.6z"/>
	<path class="st1" d="M202.4,85.7h-4.6v-1.1h10.4v1.1h-4.6v13h-1.2V85.7z"/>
	<path class="st1" d="M217.1,84.6h1.2v8.7c0,2.9,1.5,4.6,4.3,4.6c2.8,0,4.3-1.7,4.3-4.6v-8.7h1.2v8.7c0,3.5-1.9,5.7-5.5,5.7
		c-3.6,0-5.5-2.2-5.5-5.7V84.6z"/>
	<path class="st1" d="M239.2,86.5v12.2h-1.2V84.6h1.2l8.8,12v-12h1.2v14.1H248L239.2,86.5z"/>
	<path class="st1" d="M259.1,84.6h1.2v14.1h-1.2V84.6z"/>
	<path class="st1" d="M270.1,95.8c0.9,1.1,2.4,2,4.4,2c2.9,0,3.7-1.6,3.7-2.8c0-2-1.9-2.5-3.9-3.1c-2.2-0.6-4.6-1.2-4.6-3.8
		c0-2.3,2.1-3.8,4.6-3.8c2.1,0,3.7,0.7,4.8,2l-0.8,0.9c-1-1.2-2.5-1.8-4-1.8c-1.9,0-3.3,1.1-3.3,2.6c0,1.7,1.8,2.2,3.7,2.7
		c2.3,0.6,4.8,1.4,4.8,4.2c0,1.8-1.2,4-5,4c-2.3,0-4.1-0.9-5.2-2.2L270.1,95.8z"/>
	<path class="st1" d="M288.7,84.6h1.2v14.1h-1.2V84.6z"/>
	<path class="st1" d="M308.6,95.2h-7.5l-1.4,3.5h-1.4l5.8-14.1h1.5l5.8,14.1H310L308.6,95.2z M301.5,94.1h6.7l-3.4-8.3L301.5,94.1z"
		/>
</g>
<g id="turquoise-line">
	<rect id="line" x="120.2" y="69.2" class="st2" width="99.8" height="2.5"/>
</g>
</svg>
